<svg width="694" height="525" viewBox="0 0 694 525" fill="none" xmlns="http://www.w3.org/2000/svg">
<g clip-path="url(#clip0)">
<path d="M462.958 92.0651C512.069 140.561 555.007 186.479 603.423 251.754C651.838 317.029 705.567 401.676 680.097 452.207C654.655 502.547 549.885 518.778 473.912 523.399C398.111 528.197 350.937 521.37 308.162 515.29C265.231 509.388 226.358 504.22 172.643 492.053C118.757 479.879 50.0285 460.729 15.0778 414.455C-19.7093 368.18 -20.9644 294.775 11.3671 245.731C43.6987 196.688 109.412 171.728 163.83 125.069C218.071 78.4177 261.009 9.63271 309.949 0.968729C359.06 -7.70237 414.017 43.5625 462.958 92.0651Z" fill="#F2F2F2"/>
<path d="M-6.79541 235.906C16.0617 262.696 104.237 319.649 115.437 327.928C126.637 336.208 309.044 464.445 323.968 470.574C409.346 466.701 447.599 397.56 447.599 380.033C447.599 362.506 356.518 237.7 316.936 233.016C309.869 232.183 227.383 258.645 227.383 258.645L45.3579 97.8951C23.3602 79.122 -6.79541 54.4044 -6.79541 54.4044V235.942" fill="#D37C59"/>
<path d="M494.913 206.762L456.67 229.807L549.409 397.455L587.652 374.41L494.913 206.762Z" fill="#FED892"/>
<path d="M556.932 377.577C563.638 377.577 569.074 371.904 569.074 364.905C569.074 357.906 563.638 352.233 556.932 352.233C550.227 352.233 544.791 357.906 544.791 364.905C544.791 371.904 550.227 377.577 556.932 377.577Z" fill="#FD8369"/>
<path d="M461.009 237.651C456.466 240.456 429.973 254.288 421.14 253.135C412.307 251.981 372.561 237.003 360.433 241.609C348.305 246.215 290.859 272.719 290.859 272.719C290.859 272.719 238.972 330.327 237.873 331.488C236.775 332.648 237.805 341.604 239.388 343.035C240.97 344.466 258.8 350.083 261.754 348.211C264.707 346.338 304.59 314.402 311.765 314.402C318.941 314.402 387.396 365.752 428.172 411.08C437.578 406.808 524.389 352.233 524.389 352.233L461.009 237.651Z" fill="#DE8E68"/>
<path d="M186.423 375.84C186.423 375.84 182.876 396.742 190.727 408.645C198.578 420.548 259.673 462.608 268.288 463.932C276.903 465.256 292.619 452.541 294.392 445.422C296.166 438.303 284.761 412.091 281.466 408.403C278.172 404.715 231.032 370.287 225.957 369.483C220.882 368.678 194.28 370.814 186.423 375.84Z" fill="#DE8E68"/>
<path d="M192.384 411.08L226.141 384.376" stroke="#5B5B5B" stroke-width="1.62" stroke-linecap="round" stroke-linejoin="round"/>
<path d="M218.877 433.462L252.641 406.758" stroke="#5B5B5B" stroke-width="1.62" stroke-linecap="round" stroke-linejoin="round"/>
<path d="M244.722 450.861L270.382 430.572" stroke="#5B5B5B" stroke-width="1.62" stroke-linecap="round" stroke-linejoin="round"/>
<path d="M408.958 438.261L312.911 356.789" stroke="#5B5B5B" stroke-width="1.62" stroke-linecap="round" stroke-linejoin="round"/>
<path d="M373.236 459.006L312.318 407.335" stroke="#5B5B5B" stroke-width="1.62" stroke-linecap="round" stroke-linejoin="round"/>
<path d="M342.78 470.012L292.653 427.496" stroke="#5B5B5B" stroke-width="1.62" stroke-linecap="round" stroke-linejoin="round"/>
<path d="M146.397 256.793L110.33 224.607C103.532 218.542 93.3104 219.376 87.4987 226.47L51.8651 269.969C46.0534 277.064 46.8525 287.732 53.6499 293.798L89.7178 325.983C96.5152 332.049 106.737 331.215 112.549 324.121L148.182 280.621C153.994 273.527 153.195 262.859 146.397 256.793Z" fill="#5B5B5B"/>
<path d="M179.712 214.849L146.184 184.931L112.319 226.271L145.847 256.189L179.712 214.849Z" fill="#0E237E"/>
<path d="M142.489 480.349C150.038 480.349 156.158 473.961 156.158 466.082C156.158 458.203 150.038 451.815 142.489 451.815C134.94 451.815 128.82 458.203 128.82 466.082C128.82 473.961 134.94 480.349 142.489 480.349Z" stroke="#0E237E" stroke-width="8.09" stroke-miterlimit="10"/>
<path d="M491.171 455.218C496.656 455.218 501.102 450.578 501.102 444.853C501.102 439.128 496.656 434.487 491.171 434.487C485.686 434.487 481.24 439.128 481.24 444.853C481.24 450.578 485.686 455.218 491.171 455.218Z" stroke="#68BB5B" stroke-width="8.09" stroke-miterlimit="10"/>
<path d="M423.527 214.243C429.012 214.243 433.459 209.602 433.459 203.878C433.459 198.153 429.012 193.512 423.527 193.512C418.042 193.512 413.596 198.153 413.596 203.878C413.596 209.602 418.042 214.243 423.527 214.243Z" stroke="#68BB5B" stroke-width="8.09" stroke-miterlimit="10"/>
<path d="M693.973 82.3042L681.599 90.0854C681.599 90.0854 539.464 179.822 494.909 206.761L569.08 340.835L693.973 271.666V82.3042Z" fill="#68BB5B"/>
</g>
<defs>
<clipPath id="clip0">
<rect width="706" height="525" fill="white" transform="translate(-12)"/>
</clipPath>
</defs>
</svg>
