<svg width="491" height="425" viewBox="0 0 491 425" fill="none" xmlns="http://www.w3.org/2000/svg">
<g clip-path="url(#clip0)">
<path d="M412.493 110.3C456.6 139.366 472.873 196.026 456.127 246.135C439.265 296.245 389.487 339.814 321.44 368.862C253.393 397.839 167.201 412.417 109.639 389.649C52.0783 366.881 23.4403 306.937 8.93012 248.121C-5.45692 189.301 -5.69022 131.689 32.6363 103.57C70.9629 75.5458 147.759 76.925 222.15 78.3042C296.567 79.7686 368.503 81.2379 412.493 110.3Z" fill="#F1F1F1"/>
<path d="M376.448 406.791H362.139V413.777H376.448V406.791Z" fill="#E49D75"/>
<path d="M447.03 393.88L436.585 400.05L444.061 406.819L454.507 400.649L447.03 393.88Z" fill="#E49D75"/>
<path d="M385.968 121.504H385.314C382.368 121.504 379.98 123.25 379.98 125.404V127.409C379.98 129.563 382.368 131.309 385.314 131.309H385.968C388.914 131.309 391.302 129.563 391.302 127.409V125.404C391.302 123.25 388.914 121.504 385.968 121.504Z" fill="#E49D75"/>
<path d="M390.394 268.922C392.338 272.183 407.244 337.615 409.434 343.805C411.625 349.994 446.666 390.346 449.051 392.758C449.783 396.246 438.96 402.147 433.828 402.147C428.695 399.18 368.749 335.658 367.31 332.838C365.871 330.018 361.043 262.534 390.394 268.922Z" fill="#343434"/>
<path d="M327.811 258.083C327.13 260.785 337.259 322.539 338.517 330.833C339.774 339.127 359.183 405.943 360.901 407.611C362.618 409.279 375.683 408.919 377.938 408.085C380.194 407.251 373.532 338.416 373.532 333.426C373.532 328.435 391.029 282.406 388.781 269.074C386.532 255.742 327.811 258.083 327.811 258.083Z" fill="#343434"/>
<path d="M377.479 183.225H363.798V200.637H377.479V183.225Z" fill="#E49D75"/>
<path d="M293.003 65.3325H76.0764C68.0519 65.3325 61.5468 70.0897 61.5468 75.9582V234.6C61.5468 240.468 68.0519 245.225 76.0764 245.225H293.003C301.028 245.225 307.533 240.468 307.533 234.6V75.9582C307.533 70.0897 301.028 65.3325 293.003 65.3325Z" fill="#E0E0E0"/>
<path d="M199.915 147.3C203.29 145.035 205.651 142.078 206.689 138.815C207.727 135.552 207.393 132.136 205.731 129.014C204.069 125.892 201.157 123.21 197.376 121.319C193.595 119.428 189.121 118.416 184.54 118.416C179.959 118.416 175.485 119.428 171.704 121.319C167.922 123.21 165.01 125.892 163.348 129.014C161.686 132.136 161.353 135.552 162.39 138.815C163.428 142.078 165.789 145.035 169.164 147.3L151.647 199.249H217.413L199.915 147.3Z" fill="#A4A4A4"/>
<path d="M106 88C106.189 69.3767 114.595 51.5736 129.39 38.4642C144.185 25.3548 164.171 18 185 18C205.829 18 225.815 25.3548 240.61 38.4642C255.405 51.5736 263.811 69.3767 264 88" stroke="#E0E0E0" stroke-width="32" stroke-linecap="round" stroke-linejoin="round"/>
<path d="M368.872 186.087C379.252 186.087 387.666 177.812 387.666 167.604C387.666 157.396 379.252 149.12 368.872 149.12C358.492 149.12 350.078 157.396 350.078 167.604C350.078 177.812 358.492 186.087 368.872 186.087Z" fill="#E49D75"/>
<path d="M366.312 197.05C343.526 197.05 323.216 243.278 327.117 258.619C328.271 263.15 382.799 272.292 391.133 271.012C394.095 268.065 406.181 197.05 366.312 197.05Z" fill="#5166D5"/>
<path d="M360.467 222.799C370.667 217.386 354.362 191.159 350.551 190.708C343.533 189.879 326.081 199.713 326.631 203.846C326.923 206.026 350.078 228.311 360.467 222.799Z" fill="#5166D5"/>
<path d="M329.865 201.898C327.117 199.486 320.248 187.68 319.496 184.879C318.744 182.078 316.904 139.978 316.904 137.485C316.904 134.992 312.367 128.703 312.367 124.949C312.367 121.196 317.591 116.106 320.248 116.039C323.086 117.513 327.026 126.158 327.208 128.362C328.199 123.622 332.891 122.532 334.175 122.532C335.458 122.532 335.289 129.855 329.975 134.783C330.163 138.404 336.456 174.267 337.473 176.343C338.491 178.419 350.078 192.026 350.052 193.23C350.026 194.433 329.865 201.898 329.865 201.898Z" fill="#E49D75"/>
<path d="M469.991 134.889L240.049 111.914L239.151 116.718L469.094 139.693L469.991 134.889Z" fill="#A4A4A4"/>
<path d="M253.212 118.121L239.15 116.716L236.55 130.629L250.612 132.034L253.212 118.121Z" fill="#A4A4A4"/>
<path d="M266.755 119.476L259.191 118.721L256.592 132.634L264.156 133.39L266.755 119.476Z" fill="#A4A4A4"/>
<path d="M391.911 158.296C391.373 156.049 390.887 139.769 391.716 137.471C392.546 135.172 394.788 133.494 395.793 130.063C396.136 128.883 395.592 124.798 394.497 124.627C392.138 124.257 392.002 126.191 391.69 127.613C390.485 132.461 388.029 131.575 386.895 131.461C385.761 131.347 381.866 130.855 380.589 130.831C379.312 130.807 382.566 132.727 381.574 135.793C380.796 138.205 377.141 154.277 376.39 156.907C379.118 156.988 391.911 158.296 391.911 158.296Z" fill="#E49D75"/>
<path d="M279.664 120.761L272.1 120.006L269.501 133.919L277.065 134.675L279.664 120.761Z" fill="#A4A4A4"/>
<path d="M279.66 120.765L239.15 116.718L238.229 121.648L278.739 125.696L279.66 120.765Z" fill="#A4A4A4"/>
<path d="M476.127 125.158C472.757 124.822 469.328 125.225 466.271 126.314C463.214 127.404 460.667 129.131 458.952 131.279C457.238 133.427 456.432 135.898 456.638 138.38C456.843 140.863 458.05 143.245 460.106 145.226C462.162 147.207 464.974 148.697 468.189 149.51C471.403 150.322 474.874 150.419 478.164 149.789C481.453 149.159 484.414 147.83 486.671 145.97C488.928 144.109 490.38 141.802 490.845 139.338C491.153 137.7 491.017 136.034 490.444 134.434C489.871 132.835 488.873 131.333 487.506 130.016C486.139 128.699 484.43 127.592 482.478 126.759C480.525 125.925 478.367 125.381 476.127 125.158ZM485.401 138.779C485.087 140.457 484.1 142.03 482.564 143.298C481.028 144.566 479.012 145.472 476.772 145.902C474.532 146.332 472.167 146.267 469.978 145.714C467.788 145.162 465.872 144.147 464.471 142.797C463.07 141.448 462.248 139.826 462.109 138.135C461.969 136.444 462.519 134.761 463.687 133.298C464.856 131.836 466.591 130.659 468.674 129.918C470.757 129.177 473.093 128.904 475.388 129.134C478.465 129.442 481.247 130.632 483.125 132.44C485.003 134.249 485.821 136.529 485.401 138.779Z" fill="#A4A4A4"/>
<path d="M330.046 134.746C329.191 132.295 327.526 130.153 327.253 128.309V128.366C327.072 126.158 323.132 117.513 320.293 116.044C317.636 116.11 312.413 121.2 312.413 124.954C312.413 127.708 314.875 131.826 316.184 134.807H330.021L330.046 134.746Z" fill="#E49D75"/>
<path d="M351.938 156.025C351.938 162.419 358.108 166.362 367.887 168.561C367.887 177.31 369.734 177.694 369.734 183.021C369.734 194.5 367.057 188.76 367.057 208.581C367.057 220.533 373.901 227.036 386.499 227.036C401.735 227.036 410.478 215.249 410.478 208.898C410.478 200.841 399.577 186.841 398.813 175.215C397.756 159.575 391.107 146.49 374.432 146.49C360.188 146.49 351.938 150.367 351.938 156.025Z" fill="black"/>
<path d="M368.853 173.755C371.644 173.755 373.908 172.1 373.908 170.059C373.908 168.017 371.644 166.362 368.853 166.362C366.061 166.362 363.798 168.017 363.798 170.059C363.798 172.1 366.061 173.755 368.853 173.755Z" fill="#E49D75"/>
<path fill-rule="evenodd" clip-rule="evenodd" d="M454.481 399.289L462.582 407.374L445.635 424.91L429.641 424.986L429.848 419.057L436.271 416.981L441.98 406.678L454.481 399.289Z" fill="black"/>
<path d="M377.407 413.194V425H329.956V419.772L361.264 413.194H377.407Z" fill="black"/>
</g>
<defs>
<clipPath id="clip0">
<rect width="491" height="425" fill="white"/>
</clipPath>
</defs>
</svg>
